<?xml version="1.0" standalone="yes"?>

<svg version="1.1" viewBox="0.0 0.0 121.0 198.0" fill="none" stroke="none" stroke-linecap="square" stroke-miterlimit="10" xmlns="http://www.w3.org/2000/svg" xmlns:xlink="http://www.w3.org/1999/xlink"><clipPath id="p.0"><path d="m0 0l121.0 0l0 198.0l-121.0 0l0 -198.0z" clip-rule="nonzero"></path></clipPath><g clip-path="url(#p.0)"><path fill="#000000" fill-opacity="0.0" d="m0 0l121.708664 0l0 198.65355l-121.708664 0z" fill-rule="nonzero"></path><path fill="#dc2e35" d="m112.32809 71.779526l-19.691978 125.88977l-64.14361 0l-19.691978 -125.88977z" fill-rule="nonzero"></path><path fill="#ffd966" d="m12.989501 65.24672l0 -24.251968l0 0c0 -13.393993 21.299965 -24.251968 47.574802 -24.251968c26.274837 0 47.574802 10.857975 47.574802 24.251968l0 24.251968z" fill-rule="nonzero"></path><path fill="#ffd966" d="m1.3412074 50.790028l0 0c0 -7.984211 6.4724817 -14.456696 14.456693 -14.456696l0 0c3.8341532 0 7.5112696 1.5231133 10.2224245 4.234268c2.7111568 2.711155 4.234268 6.3882713 4.234268 10.222427l0 0c0 7.984207 -6.4724827 14.456692 -14.456693 14.456692l0 0c-7.984211 0 -14.456693 -6.4724846 -14.456693 -14.456692z" fill-rule="nonzero"></path><path fill="#ffd966" d="m8.800525 31.199474l0 0c0 -7.984211 6.4724817 -14.456692 14.456693 -14.456692l0 0c3.8341522 0 7.5112686 1.5231113 10.222424 4.2342663c2.7111588 2.7111568 4.234268 6.3882732 4.234268 10.222425l0 0c0 7.984211 -6.472481 14.456692 -14.456692 14.456692l0 0c-7.984211 0 -14.456693 -6.472481 -14.456693 -14.456692z" fill-rule="nonzero"></path><path fill="#ffd966" d="m22.149607 31.199474l0 0c0 -7.984211 6.472481 -14.456692 14.456694 -14.456692l0 0c3.8341522 0 7.5112686 1.5231113 10.222424 4.2342663c2.711155 2.7111568 4.234268 6.3882732 4.234268 10.222425l0 0c0 7.984211 -6.472481 14.456692 -14.456692 14.456692l0 0c-7.984213 0 -14.456694 -6.472481 -14.456694 -14.456692z" fill-rule="nonzero"></path><path fill="#ffd966" d="m26.023623 21.87664l0 0c0 -7.984211 6.4724827 -14.456693 14.456694 -14.456693l0 0c3.8341522 0 7.5112686 1.5231113 10.222424 4.234267c2.711155 2.711156 4.234268 6.3882713 4.234268 10.222425l0 0c0 7.984211 -6.4724846 14.456692 -14.456692 14.456692l0 0c-7.984211 0 -14.456694 -6.472481 -14.456694 -14.456692z" fill-rule="nonzero"></path><path fill="#ffd966" d="m91.45407 31.199474l0 0c0 -7.984211 6.472481 -14.456692 14.456688 -14.456692l0 0c3.8341522 0 7.5112686 1.5231113 10.222427 4.2342663c2.7111588 2.7111568 4.234268 6.3882732 4.234268 10.222425l0 0c0 7.984211 -6.472481 14.456692 -14.456696 14.456692l0 0c-7.984207 0 -14.456688 -6.472481 -14.456688 -14.456692z" fill-rule="nonzero"></path><path fill="#ffd966" d="m71.08137 31.199474l0 0c0 -7.984211 6.472481 -14.456692 14.456688 -14.456692l0 0c3.8341522 0 7.5112686 1.5231113 10.222427 4.2342663c2.7111588 2.7111568 4.234268 6.3882732 4.234268 10.222425l0 0c0 7.984211 -6.472481 14.456692 -14.456696 14.456692l0 0c-7.984207 0 -14.456688 -6.472481 -14.456688 -14.456692z" fill-rule="nonzero"></path><path fill="#ffd966" d="m50.127296 21.87664l0 0c0 -7.984211 6.472481 -14.456693 14.456696 -14.456693l0 0c3.8341522 0 7.5112686 1.5231113 10.22242 4.234267c2.7111588 2.711156 4.234268 6.3882713 4.234268 10.222425l0 0c0 7.984211 -6.472481 14.456692 -14.456688 14.456692l0 0c-7.984215 0 -14.456696 -6.472481 -14.456696 -14.456692z" fill-rule="nonzero"></path><path fill="#ffd966" d="m71.08137 15.440087l0 0c0 -7.9842105 6.472481 -14.456692 14.456688 -14.456692l0 0c3.8341522 0 7.5112686 1.5231113 10.222427 4.234267c2.7111588 2.711156 4.234268 6.388272 4.234268 10.222425l0 0c0 7.984212 -6.472481 14.456693 -14.456696 14.456693l0 0c-7.984207 0 -14.456688 -6.472481 -14.456688 -14.456693z" fill-rule="nonzero"></path><path fill="#ffd966" d="m91.45407 49.904198l0 0c0 -7.984211 6.472481 -14.456692 14.456688 -14.456692l0 0c3.8341522 0 7.5112686 1.5231133 10.222427 4.234268c2.7111588 2.711155 4.234268 6.3882713 4.234268 10.222424l0 0c0 7.984211 -6.472481 14.456696 -14.456696 14.456696l0 0c-7.984207 0 -14.456688 -6.4724846 -14.456688 -14.456696z" fill-rule="nonzero"></path><path fill="#ffffff" d="m52.95013 71.65354l3.952755 126.33071l7.90551 0l3.9527588 -126.33071z" fill-rule="nonzero"></path><path fill="#ffffff" d="m21.486057 73.396324l16.653542 124.32284l7.8582687 -0.80314636l-8.795277 -125.12599z" fill-rule="nonzero"></path><path fill="#ffffff" d="m100.19111 73.354324l-16.622047 124.38583l-7.8582687 -0.80314636l8.763779 -125.18898z" fill-rule="nonzero"></path><path fill="#ffffff" d="m37.115486 71.69603l-15.364838 3.6220474l-0.44618607 -3.6220474z" fill-rule="nonzero"></path><path fill="#ffffff" d="m84.5958 71.69603l15.364838 3.6220474l0.44618225 -3.6220474z" fill-rule="nonzero"></path><path fill="#ffffff" d="m46.070866 197.75066l-7.7548294 0.1410675l7.2193985 -7.4166565z" fill-rule="nonzero"></path><path fill="#ffffff" d="m75.64042 197.75066l7.7548294 0.1410675l-7.2193985 -7.4166565z" fill-rule="nonzero"></path></g></svg>

